<svg width="101" height="86" viewBox="0 0 101 86" fill="none" xmlns="http://www.w3.org/2000/svg">
<path d="M97.1973 32.9677L85.2279 22.9241C89.6219 17.6875 88.9238 9.70778 83.6871 5.31372C78.3009 0.794123 70.4708 1.6178 66.0767 6.85443L54.1073 -3.18912C50.0676 -6.57882 44.1637 -5.92366 40.8995 -2.03359L-3.29215 50.632C-6.68185 54.6717 -6.1763 60.4501 -2.13661 63.8398L40.9534 99.9966C44.8435 103.261 50.7715 102.881 54.1612 98.841L98.3528 46.1755C101.617 42.2854 101.087 36.2318 97.1973 32.9677ZM78.6654 11.2984C80.6104 12.9305 80.8752 15.9573 79.2431 17.9023C77.4855 19.997 74.5843 20.1122 72.6392 18.4801C70.5446 16.7225 70.3038 13.9709 72.0615 11.8762C73.6936 9.93118 76.5707 9.54082 78.6654 11.2984ZM67.6428 61.2007L28.4201 64.4936C27.0443 64.614 25.8474 63.6096 25.8766 62.3594L23.8785 39.5209C23.7582 38.1451 24.9121 37.0737 26.0128 36.9774L33.9925 36.2792C35.0932 36.1829 36.2901 37.1873 36.4105 38.5631L37.5178 51.2206L66.5595 48.8184C67.7857 48.5725 68.9827 49.5768 69.103 50.9527L69.7771 58.6572C69.8975 60.033 68.7435 61.1044 67.6428 61.2007Z" fill="white" fill-opacity="0.4"/>
</svg>
