<svg width="93" height="86" viewBox="0 0 93 86" fill="none" xmlns="http://www.w3.org/2000/svg">
<path d="M74.7576 8.54543C54.2599 -8.65416 23.7169 -5.982 6.51732 14.5157C-10.6823 35.0134 -8.0101 65.5564 12.4876 82.756C32.9852 99.9556 63.5283 97.2834 80.7279 76.7857C97.9275 56.2881 95.2553 25.745 74.7576 8.54543ZM49.2271 66.926L43.0961 68.1555C42.1451 68.3774 41.17 68.324 40.2722 67.5708C39.8234 67.1941 39.476 66.3927 39.4279 65.8424L35.6807 49.95C35.0633 47.6473 35.6962 45.3737 37.3283 43.4287L56.9132 20.0883C57.9176 18.8913 59.9693 18.5732 61.3158 19.7031L66.1036 23.7205C67.3005 24.7249 67.4931 26.9262 66.4888 28.1231L48.4104 49.6681L51.6898 63.3833C51.762 64.2088 51.7087 65.1839 51.081 65.932C50.5788 66.5304 49.7774 66.8778 49.2271 66.926Z" fill="white" fill-opacity="0.4"/>
</svg>
