<svg width="245" height="143" viewBox="0 0 245 143" fill="none" xmlns="http://www.w3.org/2000/svg">
<path d="M50.4154 96.1667H22.9154V119.083H13.7487V87.1375L36.6654 70.775L59.582 87.1375V92.0875C62.1945 89.3833 65.3112 87.1833 68.7487 85.5792V82.4167L36.6654 59.5L4.58203 82.4167V128.25H32.082V105.333H41.2487V128.25H53.532C51.5612 124.079 50.4154 119.45 50.4154 114.5V96.1667ZM77.9154 64.0833H87.082V73.25H77.9154V64.0833Z" fill="white" fill-opacity="0.3"/>
<path d="M105.415 92.0875V45.75H45.832V54.7792L54.9987 61.3333V54.9167H96.2487V85.5333C99.6862 87.1833 102.803 89.3833 105.415 92.0875ZM105.415 114.5C105.415 101.85 95.1487 91.5833 82.4987 91.5833C69.8487 91.5833 59.582 101.85 59.582 114.5C59.582 127.15 69.8487 137.417 82.4987 137.417C95.1487 137.417 105.415 127.15 105.415 114.5ZM80.207 128.25V116.792H68.7487V112.208H80.207V100.75H84.7904V112.208H96.2487V116.792H84.7904V128.25H80.207Z" fill="white" fill-opacity="0.3"/>
<path d="M221.167 26.8125H125.833C124.253 26.8125 122.738 27.4403 121.62 28.5577C120.503 29.6751 119.875 31.1906 119.875 32.7708V122.146C119.875 123.726 120.503 125.242 121.62 126.359C122.738 127.476 124.253 128.104 125.833 128.104H221.167C222.747 128.104 224.262 127.476 225.38 126.359C226.497 125.242 227.125 123.726 227.125 122.146V32.7708C227.125 31.1906 226.497 29.6751 225.38 28.5577C224.262 27.4403 222.747 26.8125 221.167 26.8125Z" stroke="white" stroke-opacity="0.3" stroke-width="4" stroke-linejoin="round"/>
<path d="M146.688 14.8955V26.8122M200.313 14.8955V26.8122M119.875 50.6455H227.125M155.625 89.3747H191.375M173.5 71.4997V107.25M119.875 32.7705V68.5205M227.125 32.7705V68.5205" stroke="white" stroke-opacity="0.3" stroke-width="4" stroke-linecap="round"/>
</svg>
