<svg width="18" height="18" viewBox="0 0 18 18" fill="none" xmlns="http://www.w3.org/2000/svg">
<g clip-path="url(#clip0_216_1211)">
<path d="M9.64621 11.5708L5.78906 12.2651L6.43192 8.35651L13.7991 1.01508C13.9186 0.89457 14.0608 0.79892 14.2175 0.733646C14.3741 0.668372 14.5422 0.634766 14.7119 0.634766C14.8816 0.634766 15.0497 0.668372 15.2064 0.733646C15.3631 0.79892 15.5053 0.89457 15.6248 1.01508L16.9876 2.37793C17.1081 2.49746 17.2038 2.63966 17.2691 2.79634C17.3343 2.95301 17.3679 3.12106 17.3679 3.29079C17.3679 3.46052 17.3343 3.62857 17.2691 3.78525C17.2038 3.94192 17.1081 4.08413 16.9876 4.20365L9.64621 11.5708Z" stroke="white" stroke-linecap="round" stroke-linejoin="round"/>
<path d="M15.4302 12.2132V16.0703C15.4302 16.4113 15.2948 16.7383 15.0537 16.9794C14.8125 17.2206 14.4855 17.356 14.1445 17.356H1.93025C1.58925 17.356 1.26223 17.2206 1.02111 16.9794C0.77999 16.7383 0.644531 16.4113 0.644531 16.0703V3.85603C0.644531 3.51503 0.77999 3.18801 1.02111 2.94689C1.26223 2.70577 1.58925 2.57031 1.93025 2.57031H5.78739" stroke="white" stroke-linecap="round" stroke-linejoin="round"/>
</g>
<defs>
<clipPath id="clip0_216_1211">
<rect width="18" height="18" fill="white"/>
</clipPath>
</defs>
</svg>
