<svg width="133" height="133" viewBox="0 0 133 133" fill="none" xmlns="http://www.w3.org/2000/svg">
<g clip-path="url(#clip0_202_2733)">
<path d="M84.8522 78.4586C89.738 81.6481 93.1567 86.6479 94.3562 92.3581C95.5557 98.0682 94.4377 104.021 91.2482 108.907C88.0587 113.793 83.0589 117.211 77.3487 118.411C71.6386 119.61 65.6858 118.492 60.8 115.303C55.9142 112.113 52.4955 107.113 51.296 101.403C50.0965 95.6932 51.2145 89.7404 54.404 84.8546C57.5936 79.9688 62.5933 76.5501 68.3035 75.3506C74.0136 74.1511 79.9664 75.2691 84.8522 78.4586ZM69.9468 83.1735C69.4278 83.2826 68.9734 83.5933 68.6835 84.0374C68.3936 84.4815 68.2919 85.0225 68.4009 85.5416L70.4558 95.3381L60.6759 97.3896C60.4186 97.4435 60.1746 97.5475 59.9575 97.6956C59.7405 97.8438 59.5548 98.0333 59.411 98.2532C59.2672 98.4732 59.1681 98.7193 59.1194 98.9775C59.0707 99.2358 59.0733 99.5011 59.1272 99.7583C59.181 100.016 59.285 100.26 59.4332 100.477C59.5814 100.694 59.7708 100.879 59.9908 101.023C60.2107 101.167 60.4568 101.266 60.7151 101.315C60.9733 101.363 61.2386 101.361 61.4958 101.307L71.278 99.2521L73.3385 109.048C73.3886 109.308 73.4901 109.557 73.6371 109.778C73.7842 109.999 73.9738 110.189 74.1949 110.336C74.416 110.483 74.6642 110.584 74.925 110.634C75.1858 110.685 75.4539 110.682 75.7138 110.628C75.9737 110.573 76.2201 110.467 76.4387 110.317C76.6573 110.166 76.8436 109.973 76.9868 109.749C77.1301 109.526 77.2273 109.276 77.2729 109.014C77.3186 108.752 77.3116 108.484 77.2525 108.225L75.1975 98.4288L84.9997 96.3726C85.5109 96.2559 85.9559 95.9431 86.2387 95.5015C86.5216 95.0599 86.6196 94.5249 86.5118 94.0116C86.404 93.4984 86.099 93.0481 85.6623 92.7576C85.2257 92.4672 84.6925 92.3598 84.1775 92.4587L74.3754 94.5148L72.317 84.716C72.2079 84.197 71.8972 83.7426 71.4531 83.4527C71.009 83.1628 70.468 83.0612 69.9489 83.1701L69.9468 83.1735ZM52.2115 81.0348L24.5147 62.9541L24.1578 62.7545C23.4706 62.4297 22.6857 62.3778 21.9618 62.6093C21.2378 62.8408 20.6287 63.3385 20.2575 64.0018C19.8864 64.6652 19.7809 65.4446 19.9623 66.1828C20.1437 66.9209 20.5985 67.5626 21.2349 67.9783L49.1226 86.1837C49.9516 84.3548 50.988 82.6271 52.2115 81.0348ZM60.0661 74.2202L29.9812 54.5805C29.3448 54.1648 28.89 53.523 28.7086 52.7849C28.5271 52.0468 28.6327 51.2673 29.0038 50.604C29.375 49.9407 29.9841 49.4429 30.708 49.2114C31.432 48.9799 32.2169 49.0318 32.904 49.3567L33.261 49.5563L66.9566 71.5531C64.5449 72.1106 62.2247 73.0087 60.0661 74.2202ZM103.972 76.6098L42.0073 36.1584L41.6503 35.9588C40.9631 35.6339 40.1783 35.582 39.4543 35.8136C38.7303 36.0451 38.1212 36.5428 37.7501 37.2061C37.3789 37.8694 37.2734 38.6489 37.4548 39.387C37.6362 40.1251 38.0911 40.7669 38.7274 41.1826L100.693 81.634L101.05 81.8336C101.737 82.1585 102.522 82.2104 103.246 81.9789C103.97 81.7473 104.579 81.2496 104.95 80.5863C105.321 79.923 105.426 79.1435 105.245 78.4054C105.064 77.6673 104.609 77.0255 103.972 76.6098ZM112.719 63.212L50.7535 22.7605L50.3966 22.5609C49.7094 22.2361 48.9245 22.1842 48.2006 22.4157C47.4766 22.6472 46.8675 23.1449 46.4963 23.8082C46.1252 24.4716 46.0197 25.251 46.2011 25.9892C46.3825 26.7273 46.8373 27.369 47.4737 27.7847L109.439 68.2362L109.796 68.4358C110.483 68.7606 111.268 68.8125 111.992 68.581C112.716 68.3495 113.325 67.8518 113.696 67.1885C114.067 66.5251 114.173 65.7457 113.991 65.0075C113.81 64.2694 113.355 63.6277 112.719 63.212Z" fill="white" fill-opacity="0.6"/>
</g>
<defs>
<clipPath id="clip0_202_2733">
<rect width="96" height="96" fill="white" transform="translate(52.4766) rotate(33.1369)"/>
</clipPath>
</defs>
</svg>
