<svg width="261" height="166" viewBox="0 0 261 166" fill="none" xmlns="http://www.w3.org/2000/svg">
<path d="M84.3706 121.49L86.8125 112.333V106.906C85.7637 94.79 75.4774 85.25 63.0938 85.25H58.9688V106.906H44.036L41.7358 96.7526C41.5331 95.8331 41.0234 95.0101 40.2906 94.4189C39.5578 93.8277 38.6456 93.5037 37.7041 93.5H29.0625V97.625H37.7041L42.9216 120.657C41.0598 121.15 39.3733 122.155 38.0532 123.557C36.7331 124.96 35.8322 126.704 35.4524 128.592C35.0727 130.48 35.2293 132.437 35.9046 134.241C36.5799 136.045 37.7468 137.623 39.2732 138.798C40.7996 139.973 42.6244 140.696 44.541 140.887C46.4576 141.078 48.3893 140.728 50.1173 139.877C51.8453 139.027 53.3005 137.709 54.3181 136.074C55.3357 134.439 55.8751 132.551 55.875 130.625C55.875 130.277 55.8578 129.933 55.8234 129.594H69.3328C69.2989 129.933 69.2817 130.277 69.2812 130.625C69.2805 132.454 69.766 134.25 70.6881 135.829C71.6102 137.408 72.9357 138.714 74.5287 139.612C76.1217 140.51 77.9248 140.969 79.7534 140.941C81.5819 140.912 83.37 140.398 84.9345 139.451C86.4989 138.504 87.7833 137.158 88.6561 135.551C89.5288 133.944 89.9586 132.134 89.9012 130.306C89.8438 128.478 89.3014 126.698 88.3295 125.149C87.3577 123.6 85.9914 122.337 84.3706 121.49ZM63.0938 89.375C73.2014 89.375 81.546 97.0679 82.5797 106.906H63.0938V89.375ZM45.5625 136.812C44.3387 136.812 43.1424 136.45 42.1249 135.77C41.1074 135.09 40.3143 134.123 39.846 132.993C39.3777 131.862 39.2551 130.618 39.4939 129.418C39.7326 128.218 40.3219 127.115 41.1873 126.25C42.0526 125.384 43.1551 124.795 44.3554 124.556C45.5556 124.318 46.7997 124.44 47.9304 124.908C49.061 125.377 50.0273 126.17 50.7072 127.187C51.3871 128.205 51.75 129.401 51.75 130.625C51.7481 132.265 51.0956 133.838 49.9357 134.998C48.7757 136.158 47.203 136.811 45.5625 136.812ZM70.6687 125.469H54.4876C53.7123 124.129 52.6459 122.98 51.3671 122.107C50.0882 121.235 48.6297 120.661 47.0992 120.427L44.9706 111.031H82.6875V111.792L80.4059 120.347C80.1357 120.325 79.8648 120.313 79.5938 120.312C77.7845 120.314 76.0075 120.791 74.441 121.696C72.8744 122.601 71.5735 123.902 70.6687 125.469ZM79.5938 136.812C78.37 136.812 77.1737 136.45 76.1562 135.77C75.1386 135.09 74.3456 134.123 73.8772 132.993C73.4089 131.862 73.2864 130.618 73.5251 129.418C73.7639 128.218 74.3532 127.115 75.2185 126.25C76.0839 125.384 77.1864 124.795 78.3866 124.556C79.5869 124.318 80.831 124.44 81.9616 124.908C83.0922 125.377 84.0586 126.17 84.7385 127.187C85.4184 128.205 85.7812 129.401 85.7812 130.625C85.7794 132.265 85.1269 133.838 83.9669 134.998C82.8069 136.158 81.2342 136.811 79.5938 136.812Z" fill="white" fill-opacity="0.3"/>
<g clip-path="url(#clip0_413_2079)">
<path d="M63.8328 33.6084L62.0461 33.6187C60.9697 29.8905 58.3602 26.7788 54.9552 25.0832L54.9358 24.8153C54.9328 21.3311 52.075 18.5066 48.591 18.5446C45.107 18.5826 42.2829 21.4042 42.3215 24.8882L42.3053 25.1563C38.9207 26.8912 36.3487 30.0329 35.3168 33.7733L33.5301 33.7836C33.0318 33.7834 32.5384 33.8822 32.0786 34.0742C31.6188 34.2661 31.2017 34.5474 30.8515 34.9018C30.5012 35.2562 30.2249 35.6766 30.0383 36.1386C29.8518 36.6006 29.7588 37.0951 29.7649 37.5934L29.7772 42.6499C29.8075 44.7402 31.4971 46.41 33.5877 46.4158L34.8561 46.3906L35.025 71.6725C35.0196 73.7631 36.7271 75.4507 38.8354 75.4385L59.0253 75.3217C61.1337 75.3095 62.8209 73.6023 62.8083 71.494L62.6575 46.2298L63.9261 46.2403C66.0165 46.2104 67.686 44.5212 67.6914 42.4306L67.6611 37.3563C67.6497 36.3519 67.2402 35.3931 66.5224 34.6903C65.8046 33.9876 64.8372 33.5984 63.8328 33.6084ZM43.649 28.7578C44.3966 28.289 45.2344 27.9446 46.1264 27.7251L46.1094 24.8663C46.0964 24.4934 46.1804 24.1235 46.3531 23.7928C46.7233 22.9509 47.5951 22.3205 48.6136 22.3325C49.6321 22.3444 50.5112 22.929 50.8914 23.7666C51.072 24.0872 51.1456 24.4441 51.1479 24.8372L51.165 27.6959C52.0596 27.9052 52.9014 28.2398 53.6546 28.7C55.6444 29.7784 57.1914 31.5205 58.0259 33.6241L39.3368 33.7322C40.1461 31.6191 41.6722 29.8592 43.649 28.7578ZM59.0027 71.5339L38.8128 71.6506L38.6619 46.3865L58.8519 46.2697L59.0027 71.5339ZM63.9035 42.4525L33.565 42.628L33.5527 37.5714L63.8555 37.3962L63.9035 42.4525ZM54.5131 55.7647L43.1138 55.8306L43.0912 52.0428L54.4905 51.9769L54.5131 55.7647ZM54.5406 63.3584L43.177 63.4241L43.1364 59.6185L54.5357 59.5525L54.5406 63.3584Z" fill="white" fill-opacity="0.3"/>
</g>
<path d="M117.414 49.4C121.178 49.4 124.859 48.2739 127.989 46.1642C131.119 44.0545 133.559 41.0559 134.999 37.5475C136.44 34.0392 136.817 30.1787 136.083 26.4543C135.348 22.7298 133.535 19.3087 130.873 16.6236C128.211 13.9384 124.82 12.1098 121.127 11.3689C117.435 10.6281 113.608 11.0083 110.13 12.4615C106.652 13.9147 103.679 16.3756 101.587 19.5331C99.4957 22.6905 98.3793 26.4026 98.3793 30.2C98.385 35.2904 100.392 40.1707 103.961 43.7701C107.529 47.3696 112.367 49.3943 117.414 49.4ZM117.414 20.6C119.296 20.6 121.136 21.163 122.701 22.2179C124.266 23.2728 125.486 24.7721 126.207 26.5262C126.927 28.2804 127.115 30.2107 126.748 32.0729C126.381 33.9351 125.475 35.6456 124.143 36.9882C122.812 38.3308 121.117 39.2451 119.271 39.6155C117.424 39.986 115.511 39.7959 113.772 39.0693C112.033 38.3427 110.546 37.1122 109.5 35.5335C108.455 33.9548 107.897 32.0987 107.897 30.2C107.899 27.6548 108.903 25.2147 110.687 23.4149C112.471 21.6152 114.891 20.6029 117.414 20.6ZM156.065 81.611C151.598 76.541 145.637 73.3133 137.444 71.5592L130.069 54.2H103.769L96 109.059V126.2H112.655V155H141.207V126.2H165V111.8C165 98.3084 162.078 88.4336 156.065 81.611ZM155.483 116.6H131.69V145.4H122.172V116.6H105.517V109.741L112.024 63.8H123.793L130.72 80.1032L133.286 80.5346C140.573 81.7595 145.55 84.1283 148.952 87.989C153.346 92.9759 155.483 100.765 155.483 111.8V116.6Z" fill="white" fill-opacity="0.3"/>
<defs>
<clipPath id="clip0_413_2079">
<rect width="67.565" height="67.565" fill="white" transform="translate(48.4883) rotate(44.6632)"/>
</clipPath>
</defs>
</svg>
