<svg width="44" height="44" viewBox="0 0 44 44" fill="none" xmlns="http://www.w3.org/2000/svg">
<g filter="url(#filter0_di_256_2655)">
<rect x="1" width="42" height="42" rx="21" fill="#FF4F70" shape-rendering="crispEdges"/>
<path d="M25.25 27.875C25.25 26.1562 23.8438 24.75 22.125 24.75C20.3672 24.75 19 26.1562 19 27.875C19 29.6328 20.3672 31 22.125 31C23.8438 31 25.25 29.6328 25.25 27.875ZM19.3516 12.0156L19.8594 22.6406C19.8984 23.1094 20.3281 23.5 20.7969 23.5H23.4141C23.8828 23.5 24.3125 23.1094 24.3516 22.6406L24.8594 12.0156C24.8984 11.4688 24.4688 11 23.9219 11H20.2891C19.7422 11 19.3125 11.4688 19.3516 12.0156Z" fill="white"/>
</g>
<defs>
<filter id="filter0_di_256_2655" x="0" y="0" width="44" height="44" filterUnits="userSpaceOnUse" color-interpolation-filters="sRGB">
<feFlood flood-opacity="0" result="BackgroundImageFix"/>
<feColorMatrix in="SourceAlpha" type="matrix" values="0 0 0 0 0 0 0 0 0 0 0 0 0 0 0 0 0 0 127 0" result="hardAlpha"/>
<feOffset dy="1"/>
<feGaussianBlur stdDeviation="0.5"/>
<feComposite in2="hardAlpha" operator="out"/>
<feColorMatrix type="matrix" values="0 0 0 0 0 0 0 0 0 0 0 0 0 0 0 0 0 0 0.075 0"/>
<feBlend mode="normal" in2="BackgroundImageFix" result="effect1_dropShadow_256_2655"/>
<feBlend mode="normal" in="SourceGraphic" in2="effect1_dropShadow_256_2655" result="shape"/>
<feColorMatrix in="SourceAlpha" type="matrix" values="0 0 0 0 0 0 0 0 0 0 0 0 0 0 0 0 0 0 127 0" result="hardAlpha"/>
<feOffset dy="1"/>
<feComposite in2="hardAlpha" operator="arithmetic" k2="-1" k3="1"/>
<feColorMatrix type="matrix" values="0 0 0 0 1 0 0 0 0 1 0 0 0 0 1 0 0 0 0.15 0"/>
<feBlend mode="normal" in2="shape" result="effect2_innerShadow_256_2655"/>
</filter>
</defs>
</svg>
