<svg width="44" height="45" viewBox="0 0 44 45" fill="none" xmlns="http://www.w3.org/2000/svg">
<g filter="url(#filter0_di_256_2646)">
<rect x="1" y="0.1875" width="42" height="42" rx="21" fill="#5F76E8" shape-rendering="crispEdges"/>
<path d="M21.6875 11.8125C16.3359 11.8125 12 16.1484 12 21.5C12 26.8516 16.3359 31.1875 21.6875 31.1875C27.0391 31.1875 31.375 26.8516 31.375 21.5C31.375 16.1484 27.0391 11.8125 21.6875 11.8125ZM24.8125 18.375C25.4766 18.375 26.0625 18.9609 26.0625 19.625C26.0625 20.3281 25.4766 20.875 24.8125 20.875C24.1094 20.875 23.5625 20.3281 23.5625 19.625C23.5625 18.9609 24.1094 18.375 24.8125 18.375ZM18.5625 18.375C19.2266 18.375 19.8125 18.9609 19.8125 19.625C19.8125 20.3281 19.2266 20.875 18.5625 20.875C17.8594 20.875 17.3125 20.3281 17.3125 19.625C17.3125 18.9609 17.8594 18.375 18.5625 18.375ZM25.2031 26.9297C24.3047 25.875 23.0156 25.25 21.6875 25.25C20.3203 25.25 19.0312 25.875 18.1328 26.9297C17.625 27.5547 16.6484 26.7344 17.1953 26.1094C18.2891 24.7812 19.9297 24 21.6875 24C23.4062 24 25.0469 24.7812 26.1406 26.1094C26.6875 26.7344 25.7109 27.5547 25.2031 26.9297Z" fill="white"/>
</g>
<defs>
<filter id="filter0_di_256_2646" x="0" y="0.1875" width="44" height="44" filterUnits="userSpaceOnUse" color-interpolation-filters="sRGB">
<feFlood flood-opacity="0" result="BackgroundImageFix"/>
<feColorMatrix in="SourceAlpha" type="matrix" values="0 0 0 0 0 0 0 0 0 0 0 0 0 0 0 0 0 0 127 0" result="hardAlpha"/>
<feOffset dy="1"/>
<feGaussianBlur stdDeviation="0.5"/>
<feComposite in2="hardAlpha" operator="out"/>
<feColorMatrix type="matrix" values="0 0 0 0 0 0 0 0 0 0 0 0 0 0 0 0 0 0 0.075 0"/>
<feBlend mode="normal" in2="BackgroundImageFix" result="effect1_dropShadow_256_2646"/>
<feBlend mode="normal" in="SourceGraphic" in2="effect1_dropShadow_256_2646" result="shape"/>
<feColorMatrix in="SourceAlpha" type="matrix" values="0 0 0 0 0 0 0 0 0 0 0 0 0 0 0 0 0 0 127 0" result="hardAlpha"/>
<feOffset dy="1"/>
<feComposite in2="hardAlpha" operator="arithmetic" k2="-1" k3="1"/>
<feColorMatrix type="matrix" values="0 0 0 0 1 0 0 0 0 1 0 0 0 0 1 0 0 0 0.15 0"/>
<feBlend mode="normal" in2="shape" result="effect2_innerShadow_256_2646"/>
</filter>
</defs>
</svg>
