<svg width="245" height="148" viewBox="0 0 245 148" fill="none" xmlns="http://www.w3.org/2000/svg">
<path d="M102.489 8.15852C102.305 8.15852 102.128 8.23155 101.998 8.36152C101.868 8.4915 101.795 8.66779 101.795 8.85161V22.7189C101.795 23.2704 101.576 23.7992 101.186 24.1892C100.796 24.5791 100.267 24.7982 99.7159 24.7982H85.8523C85.6684 24.7982 85.4921 24.8712 85.3621 25.0012C85.2321 25.1311 85.1591 25.3074 85.1591 25.4913V43.5115C85.1591 43.8941 85.4696 44.2046 85.8523 44.2046H99.7159C100.267 44.2046 100.796 44.4237 101.186 44.8136C101.576 45.2035 101.795 45.7324 101.795 46.2839V60.1484C101.795 60.531 102.106 60.8415 102.489 60.8415H120.511C120.695 60.8415 120.872 60.7685 121.002 60.6385C121.132 60.5085 121.205 60.3322 121.205 60.1484V46.2839C121.205 45.7324 121.424 45.2035 121.814 44.8136C122.204 44.4237 122.733 44.2046 123.284 44.2046H137.148C137.332 44.2046 137.508 44.1316 137.638 44.0016C137.768 43.8716 137.841 43.6953 137.841 43.5115V25.4913C137.841 25.3074 137.768 25.1311 137.638 25.0012C137.508 24.8712 137.332 24.7982 137.148 24.7982H123.284C122.733 24.7982 122.204 24.5791 121.814 24.1892C121.424 23.7992 121.205 23.2704 121.205 22.7189V8.85438C121.205 8.67057 121.132 8.49428 121.002 8.3643C120.872 8.23432 120.695 8.1613 120.511 8.1613L102.489 8.15852ZM97.6364 8.85161C97.6364 6.17352 99.8102 4 102.489 4H120.511C123.19 4 125.364 6.17352 125.364 8.85161V20.6396H137.148C139.826 20.6396 142 22.8104 142 25.4913V43.5115C142 44.7982 141.489 46.0323 140.579 46.9421C139.669 47.852 138.435 48.3631 137.148 48.3631H125.364V60.1484C125.364 61.4351 124.852 62.6691 123.942 63.579C123.032 64.4889 121.798 65 120.511 65H102.489C101.202 65 99.9675 64.4889 99.0576 63.579C98.1476 62.6691 97.6364 61.4351 97.6364 60.1484V48.3631H85.8523C84.5654 48.3631 83.3312 47.852 82.4212 46.9421C81.5112 46.0323 81 44.7982 81 43.5115V25.4913C81 22.8132 83.1738 20.6396 85.8523 20.6396H97.6364V8.85161Z" fill="white" fill-opacity="0.3"/>
<path d="M43.2677 85.0662C38.0518 85.0662 33.0495 82.9942 29.3613 79.306C25.6731 75.6178 23.601 70.6155 23.601 65.3995V49.6662C23.601 48.623 24.0154 47.6226 24.7531 46.8849C25.4907 46.1473 26.4912 45.7329 27.5344 45.7329H31.4677C32.5109 45.7329 33.5114 45.3185 34.249 44.5808C34.9866 43.8432 35.401 42.8427 35.401 41.7995C35.401 40.7564 34.9866 39.7559 34.249 39.0183C33.5114 38.2806 32.5109 37.8662 31.4677 37.8662H27.5344C24.4048 37.8662 21.4034 39.1094 19.1905 41.3224C16.9776 43.5353 15.7344 46.5367 15.7344 49.6662V65.3995C15.7394 69.8432 16.823 74.2192 18.8921 78.1517C20.9611 82.0843 23.9538 85.4559 27.613 87.9769C31.1288 91.0765 33.98 94.8563 35.9945 99.0882C38.0091 103.32 39.1452 107.916 39.3344 112.6C39.3344 119.902 42.2352 126.905 47.3987 132.069C52.5622 137.232 59.5654 140.133 66.8677 140.133C74.17 140.133 81.1732 137.232 86.3367 132.069C91.5002 126.905 94.401 119.902 94.401 112.6V108.116C98.1088 107.158 101.34 104.881 103.489 101.712C105.639 98.5427 106.558 94.6982 106.076 90.8993C105.593 87.1005 103.742 83.608 100.868 81.0765C97.995 78.5451 94.2971 77.1485 90.4677 77.1485C86.6383 77.1485 82.9404 78.5451 80.0671 81.0765C77.1937 83.608 75.3423 87.1005 74.8598 90.8993C74.3773 94.6982 75.2968 98.5427 77.446 101.712C79.5952 104.881 82.8266 107.158 86.5344 108.116V112.6C86.5344 117.815 84.4624 122.818 80.7741 126.506C77.0859 130.194 72.0836 132.266 66.8677 132.266C61.6518 132.266 56.6495 130.194 52.9613 126.506C49.2731 122.818 47.201 117.815 47.201 112.6C47.4001 107.911 48.5486 103.311 50.5768 99.0785C52.6051 94.8463 55.471 91.0695 59.001 87.9769C62.6458 85.4471 65.6231 82.0717 67.6782 78.1397C69.7333 74.2077 70.8048 69.8362 70.801 65.3995V49.6662C70.801 46.5367 69.5578 43.5353 67.3449 41.3224C65.132 39.1094 62.1306 37.8662 59.001 37.8662H55.0677C54.0245 37.8662 53.0241 38.2806 52.2864 39.0183C51.5488 39.7559 51.1344 40.7564 51.1344 41.7995C51.1344 42.8427 51.5488 43.8432 52.2864 44.5808C53.0241 45.3185 54.0245 45.7329 55.0677 45.7329H59.001C60.0442 45.7329 61.0447 46.1473 61.7823 46.8849C62.52 47.6226 62.9344 48.623 62.9344 49.6662V65.3995C62.9344 67.9822 62.4257 70.5396 61.4373 72.9257C60.449 75.3117 59.0004 77.4798 57.1741 79.306C55.3479 81.1322 53.1799 82.5808 50.7938 83.5692C48.4077 84.5575 45.8504 85.0662 43.2677 85.0662ZM90.4677 100.8C88.3813 100.8 86.3804 99.9707 84.9051 98.4955C83.4299 97.0202 82.601 95.0193 82.601 92.9329C82.601 90.8465 83.4299 88.8456 84.9051 87.3703C86.3804 85.895 88.3813 85.0662 90.4677 85.0662C92.5541 85.0662 94.555 85.895 96.0303 87.3703C97.5056 88.8456 98.3344 90.8465 98.3344 92.9329C98.3344 95.0193 97.5056 97.0202 96.0303 98.4955C94.555 99.9707 92.5541 100.8 90.4677 100.8Z" fill="white" fill-opacity="0.3"/>
<path fill-rule="evenodd" clip-rule="evenodd" d="M168.059 71.7323C167.381 70.4633 166.548 68.8966 165.139 69.2003C147.876 72.899 130 83.5799 130 94.9314V111.26H245V94.9314C245 85.9885 233.909 77.4666 220.764 72.4389L220.719 72.3577L220.703 72.3276L220.598 72.3758C217.106 71.0527 213.471 69.9701 209.861 69.2003C208.254 68.8545 206.593 70.9354 205.868 72.2374H168.333C168.24 72.0699 168.148 71.9015 168.059 71.7323ZM211.148 75.7045C212.544 76.0654 213.934 76.4773 215.304 76.9284C215.343 77.9568 215.26 79.1686 215.081 80.4075C214.899 81.6902 214.608 82.9572 214.212 84.1964H209.861C209.268 84.1967 208.687 84.3524 208.182 84.6461C207.678 84.9398 207.27 85.3598 207.005 85.8592L203.811 91.8733C203.589 92.2905 203.473 92.7507 203.472 93.2174V99.2315C203.472 100.029 203.809 100.794 204.408 101.358C205.007 101.922 205.819 102.238 206.667 102.238H213.056V96.2244H209.861V93.9271L211.835 90.2104H220.665L222.639 93.9271V96.2244H219.444V102.238H225.833C226.681 102.238 227.493 101.922 228.092 101.358C228.691 100.794 229.028 100.029 229.028 99.2315V93.2174C229.027 92.7507 228.911 92.2905 228.689 91.8733L225.495 85.8592C225.23 85.3598 224.822 84.9398 224.318 84.6461C223.813 84.3524 223.232 84.1967 222.639 84.1964H220.831C221.225 82.6059 221.49 80.9895 221.623 79.3611C224.738 80.7443 227.632 82.332 230.139 84.052C236.279 88.2739 238.611 92.2191 238.611 94.9314V105.246H136.389V94.9314C136.389 92.2161 138.721 88.2709 144.861 84.055C147.946 81.9351 151.63 80.0166 155.578 78.4289C155.688 80.8251 156.096 83.201 156.795 85.5074L156.821 85.5916C154.911 86.7289 153.489 88.4649 152.807 90.493C152.126 92.521 152.227 94.7107 153.094 96.6752C153.96 98.6398 155.537 100.253 157.544 101.229C159.552 102.206 161.862 102.483 164.065 102.012C166.269 101.542 168.225 100.353 169.588 98.6559C170.951 96.9591 171.633 94.8635 171.514 92.7393C171.395 90.615 170.482 88.5987 168.937 87.0465C167.391 85.4944 165.313 84.5062 163.069 84.2565C162.661 82.9984 162.362 81.7112 162.174 80.4075C161.997 79.2416 161.923 78.0638 161.954 76.8863C161.963 76.6614 161.979 76.4368 162.002 76.2127C162.385 76.1015 162.769 75.9932 163.152 75.891L164.478 78.2545H209.724L211.148 75.7045ZM161.944 96.2695C163.663 96.2695 165.139 94.9465 165.139 93.2174C165.139 91.4914 163.663 90.1653 161.944 90.1653C160.226 90.1653 158.75 91.4884 158.75 93.2174C158.75 94.9435 160.226 96.2695 161.944 96.2695Z" fill="white" fill-opacity="0.3"/>
<path fill-rule="evenodd" clip-rule="evenodd" d="M213.897 10.0916C213.993 10.1998 214.082 10.3171 214.162 10.4344L214.165 10.4404L214.175 10.4554L214.204 10.5005L214.306 10.6599C214.891 11.5781 215.457 12.5075 216.002 13.4474C217.088 15.3178 218.529 17.9579 219.973 21.0792C222.832 27.2436 225.835 35.564 225.835 43.4905C225.835 52.4605 219.398 57.4341 213.737 60.0021C210.915 61.2634 207.936 62.1877 204.869 62.7535C200.149 66.8783 193.942 69.1659 187.501 69.1555C183.66 69.1595 179.867 68.3467 176.406 66.7779C172.945 65.2091 169.906 62.9247 167.514 60.0953L167.367 60.0833C166.672 60.0238 165.981 59.9375 165.294 59.8247C163.12 59.4787 161.005 58.866 159 58.0024C156.669 56.98 154.19 55.4104 152.292 53.0017C150.366 50.557 149.168 47.4117 149.168 43.4875C149.168 36.0692 153.008 27.6405 156.534 21.3799C158.657 17.6265 161.01 13.9929 163.581 10.4975L163.684 10.3622L163.722 10.3051C164.125 9.7304 164.565 9.18004 165.041 8.65721C166.287 7.30336 167.703 6.09676 169.258 5.06382C173.136 2.46876 179.109 0 187.677 0C196.222 0 202.729 2.45674 207.112 4.94054C209.3 6.18244 210.958 7.42734 212.086 8.38057C212.701 8.90285 213.288 9.45488 213.843 10.0344L213.875 10.0705L213.891 10.0855L213.897 10.0916ZM169.092 13.5677C169.044 13.6439 168.993 13.7182 168.938 13.7902L168.932 13.7962L168.906 13.8263L168.801 13.9706C168.132 14.8723 167.482 15.7856 166.849 16.71C165.571 18.5744 163.872 21.1905 162.179 24.1975C158.71 30.3559 155.557 37.6569 155.557 43.4905C155.557 46.1939 156.355 48.0672 157.422 49.4234C158.521 50.8126 160.039 51.829 161.7 52.5567C162.489 52.9025 163.287 53.1762 164.048 53.3896C163.441 50.8089 162.983 48.1989 162.677 45.5714C162.316 42.3419 162.211 38.7605 162.856 35.5941C163.492 32.4909 164.99 29.1561 168.421 27.421C172.986 25.1146 180.71 22.0294 187.52 19.9035C190.916 18.842 194.229 17.973 196.877 17.576C198.177 17.3836 199.512 17.2753 200.688 17.3866C201.608 17.4768 203.515 17.8046 204.569 19.4314C213.13 31.0655 213.258 41.7254 211.089 49.5106C210.463 51.7598 209.652 53.7565 208.815 55.4525C209.543 55.1922 210.259 54.9033 210.961 54.5864C215.593 52.4815 219.446 49.1317 219.446 43.4905C219.446 36.8089 216.858 29.3996 214.117 23.4818C212.656 20.3385 211.007 17.2754 209.179 14.3074L208.879 13.8293L208.802 13.7541L208.767 13.718C208.461 13.4192 208.143 13.1314 207.815 12.855C206.577 11.8187 205.238 10.8944 203.815 10.0946C200.247 8.06784 194.864 6.01404 187.677 6.01404C180.509 6.01404 175.819 8.05581 172.963 9.96827C171.832 10.7176 170.801 11.593 169.894 12.5754C169.612 12.8835 169.349 13.2068 169.108 13.5436L169.092 13.5677ZM170.705 53.8076C169.941 50.8916 169.382 47.9312 169.031 44.9459C168.696 41.96 168.654 39.0522 169.127 36.7278C169.616 34.3462 170.5 33.1945 171.44 32.7194C175.615 30.6085 182.991 27.6526 189.53 25.6108C192.807 24.5884 195.733 23.8367 197.874 23.5179C198.682 23.3976 199.276 23.3525 199.679 23.3555C206.7 33.1825 206.626 41.8096 204.905 47.986C204.16 50.6431 203.028 53.1902 201.541 55.5547C200.994 56.4245 200.391 57.262 199.736 58.0626L199.714 58.0896L199.647 58.1678L199.634 58.1798L199.631 58.1828C199.263 58.587 199.016 59.0757 198.915 59.5991C196.719 61.1334 194.199 62.2073 191.525 62.7486C188.851 63.2899 186.086 63.2861 183.413 62.7375C180.741 62.1888 178.225 61.108 176.033 59.5678C173.842 58.0275 172.023 56.0634 170.705 53.8076ZM200.215 23.3946C200.187 23.3913 200.159 23.3853 200.132 23.3766C200.161 23.3786 200.189 23.3847 200.215 23.3946Z" fill="white" fill-opacity="0.3"/>
</svg>
