<svg width="150" height="149" viewBox="0 0 150 149" fill="none" xmlns="http://www.w3.org/2000/svg">
<g clip-path="url(#clip0_255_4012)">
<path d="M104.147 107.07L123.136 88.2227C124.785 86.5864 125.716 84.3623 125.725 82.0396C125.733 79.7169 124.819 77.4858 123.183 75.8373L110.289 62.846C112.598 57.9624 111.816 51.9524 107.806 47.9121C103.795 43.8717 97.7916 43.0442 92.8907 45.3171L79.9965 32.3258C76.6033 28.9071 71.0299 28.8862 67.6111 32.2794L24.0997 75.4658C22.4511 77.102 21.5201 79.3261 21.5114 81.6489C21.5026 83.9716 22.417 86.2026 24.0532 87.8512L42.901 106.841C42.9339 114.582 45.8776 122.272 51.7695 128.208C63.7074 140.236 83.0906 140.309 95.1184 128.371C101.055 122.479 104.056 114.811 104.147 107.07ZM101.59 54.0816C103.286 55.7909 103.276 58.5777 101.566 60.2743C99.8571 61.9709 97.0704 61.9604 95.3738 60.251C93.6772 58.5417 93.6876 55.7549 95.397 54.0583C97.1064 52.3617 99.8931 52.3722 101.59 54.0816ZM30.2692 81.6817L73.7806 38.4953L79.9501 44.7112L73.7342 50.8807L104.582 81.9603L110.797 75.7908L116.967 82.0068L102.422 96.4434C100.951 92.2887 98.6124 88.3784 95.2809 85.0218L67.5182 57.0502L61.3023 63.2197L73.9498 75.9623C70.3274 75.8559 66.795 76.5238 63.3535 77.7185L55.0864 69.3892L48.8705 75.5587L55.2867 82.0232C54.1069 82.8858 52.9887 83.8105 51.932 84.8593C48.5754 88.1908 46.2075 92.0834 44.7057 96.227L30.2692 81.6817ZM57.9854 122.039C49.4715 113.461 49.5235 99.5891 58.1015 91.0752C66.6795 82.5613 80.5511 82.6134 89.065 91.1913C97.5789 99.7693 97.5269 113.641 88.9489 122.155C80.3709 130.669 66.4993 130.617 57.9854 122.039ZM74.2906 108.94L77.8605 123.042L71.7552 124.475L67.3325 106.592L82.8723 91.1681L87.4994 95.8301L74.2906 108.94Z" fill="white" fill-opacity="0.6"/>
</g>
<defs>
<clipPath id="clip0_255_4012">
<rect width="105.094" height="105.094" fill="white" transform="translate(75.1641 0.105469) rotate(45.2148)"/>
</clipPath>
</defs>
</svg>
