<svg width="129" height="129" viewBox="0 0 129 129" fill="none" xmlns="http://www.w3.org/2000/svg">
<g clip-path="url(#clip0_255_4026)">
<path d="M63.2475 73.0047L93.5783 62.927L91.1708 55.2326L68.3556 62.8131L64.4311 51.4501L56.9155 53.9472L63.2475 73.0047ZM39.3607 78.7058C37.3939 77.7201 36.0609 76.175 35.3618 74.0706C34.6626 71.9662 34.8065 69.9325 35.7934 67.9692L57.3013 25.0576C58.2871 23.0908 59.8321 21.7578 61.9365 21.0586C64.0409 20.3594 66.0747 20.5033 68.0379 21.4903L110.95 42.9981C112.916 43.9839 114.249 45.529 114.949 47.6334C115.648 49.7377 115.504 51.7715 114.517 53.7347L93.009 96.6464C92.0232 98.6132 90.4781 99.9462 88.3738 100.645C86.2694 101.345 84.2356 101.201 82.2724 100.214L39.3607 78.7058ZM42.9454 71.5539L85.857 93.0618L107.365 50.1501L64.4532 28.6422L42.9454 71.5539ZM17.8875 85.8404C15.9208 84.8547 14.5878 83.3096 13.8886 81.2052C13.1894 79.1008 13.3333 77.0671 14.3202 75.1039L39.4127 25.0402L46.5647 28.6249L21.4722 78.6885L71.5358 103.781L67.9512 110.933L17.8875 85.8404Z" fill="white" fill-opacity="0.6"/>
</g>
<defs>
<clipPath id="clip0_255_4026">
<rect width="96" height="96" fill="white" transform="translate(43.0156) rotate(26.6206)"/>
</clipPath>
</defs>
</svg>
