<svg width="138" height="138" viewBox="0 0 138 138" fill="none" xmlns="http://www.w3.org/2000/svg">
<g clip-path="url(#clip0_202_2717)">
<path d="M99.6762 95.7354L115.089 76.3649C116.427 74.6833 117.042 72.539 116.799 70.4039C116.556 68.2687 115.475 66.3174 113.793 64.9794L100.541 54.4355C102.136 49.6985 100.767 44.2608 96.6459 40.9815C92.5245 37.7023 86.9183 37.5907 82.6607 40.2087L69.4089 29.6648C65.9216 26.8901 60.7981 27.4731 58.0234 30.9604L22.7088 75.3444C21.3708 77.0261 20.7556 79.1703 20.9986 81.3055C21.2416 83.4407 22.3228 85.3919 24.0044 86.73L43.3748 102.142C44.2415 109.252 47.7774 116 53.8326 120.818C66.1016 130.58 83.9199 128.552 93.6819 116.283C98.4998 110.228 100.429 102.858 99.6762 95.7354ZM91.6009 47.3221C93.3446 48.7095 93.6361 51.2712 92.2487 53.0149C90.8614 54.7585 88.2996 55.0501 86.556 53.6627C84.8123 52.2753 84.5208 49.7136 85.9081 47.9699C87.2955 46.2263 89.8573 45.9348 91.6009 47.3221ZM29.0493 80.3894L64.364 36.0054L70.7045 41.0503L65.6596 47.3909L97.3624 72.6156L102.407 66.2751L108.748 71.32L96.9428 86.1569C95.1425 82.4983 92.5711 79.158 89.1472 76.4337L60.6146 53.7315L55.5697 60.072L68.5679 70.4142C65.2279 70.7078 62.0543 71.7032 59.0211 73.1728L50.5248 66.4126L45.4798 72.7532L52.074 77.9999C51.0831 78.92 50.1556 79.8905 49.2979 80.9684C46.5736 84.3923 44.8185 88.2249 43.8863 92.1946L29.0493 80.3894ZM58.8775 114.477C50.1276 107.515 48.6765 94.7633 55.6385 86.0134C62.6005 77.2634 75.3523 75.8123 84.1023 82.7743C92.8523 89.7363 94.3034 102.488 87.3413 111.238C80.3793 119.988 67.6275 121.439 58.8775 114.477ZM72.4444 100.68L77.2485 113.252L71.7933 115.227L65.7972 99.2735L78.4095 83.4221L83.1649 87.2058L72.4444 100.68Z" fill="white" fill-opacity="0.6"/>
</g>
<defs>
<clipPath id="clip0_202_2717">
<rect width="97.2328" height="97.2328" fill="white" transform="translate(61.4844 0.581055) rotate(38.5079)"/>
</clipPath>
</defs>
</svg>
