<svg width="101" height="86" viewBox="0 0 101 86" fill="none" xmlns="http://www.w3.org/2000/svg">
<path d="M97.6953 32.8334L85.7259 22.7898C90.1199 17.5532 89.4218 9.5735 84.1852 5.17944C78.7989 0.659842 70.9688 1.48352 66.5748 6.72015L58.566 -4.05312e-05L54.6053 -3.3234C50.5657 -6.7131 44.6617 -6.05794 41.3975 -2.16787L39.5785 -4.00543e-05L-0.000222206 47.1681L-2.7941 50.4977C-6.1838 54.5374 -5.67826 60.3158 -1.63857 63.7055L-0.000222683 65.0802L32.0815 92L41.4514 99.8623C45.3415 103.126 51.2695 102.746 54.6592 98.7067L60.2869 92L98.8509 46.0412C102.115 42.1511 101.585 36.0976 97.6953 32.8334ZM16.591 56.5652C14.4964 54.8076 14.2556 52.056 16.0132 49.9613C17.6453 48.0163 20.5225 47.6259 22.6171 49.3836C24.5622 51.0156 24.827 54.0424 23.1949 55.9875C21.4373 58.0821 18.536 58.1973 16.591 56.5652ZM28.6433 42.2019C26.5486 40.4443 26.3079 37.6926 28.0655 35.598C29.6976 33.653 32.5748 33.2626 34.6694 35.0202C36.6144 36.6523 36.8792 39.6791 35.2472 41.6241C33.4896 43.7188 30.5883 43.834 28.6433 42.2019ZM40.6955 27.8386C38.6009 26.0809 38.3602 23.3293 40.1178 21.2347C41.7499 19.2896 44.627 18.8993 46.7217 20.6569C48.6667 22.289 48.9315 25.3158 47.2994 27.2608C45.5418 29.3554 42.6406 29.4706 40.6955 27.8386ZM79.1634 11.1642C81.1084 12.7962 81.3733 15.823 79.7412 17.7681C77.9836 19.8627 75.0823 19.9779 73.1373 18.3458C71.0426 16.5882 70.8019 13.8366 72.5595 11.7419C74.1916 9.7969 77.0688 9.40654 79.1634 11.1642ZM52.1142 82.2933C51.4864 83.0414 50.5113 82.9881 49.9129 82.4859L28.3679 64.4075C27.6198 63.7798 27.5476 62.9543 28.1753 62.2062L30.184 59.8123C30.6862 59.2138 31.6372 58.992 32.3853 59.6197L53.9303 77.6981C54.5288 78.2003 54.625 79.3009 54.1229 79.8994L52.1142 82.2933ZM64.1664 67.93C63.5387 68.6781 62.5636 68.6247 61.9651 68.1226L40.4201 50.0442C39.672 49.4164 39.5998 48.5909 40.2275 47.8428L42.2363 45.449C42.7384 44.8505 43.6895 44.6287 44.4375 45.2564L65.9826 63.3348C66.581 63.8369 66.6773 64.9376 66.1751 65.5361L64.1664 67.93ZM76.2187 53.5666C75.591 54.3147 74.6159 54.2614 74.0174 53.7592L52.4724 35.6808C51.7243 35.0531 51.6521 34.2276 52.2798 33.4795L54.2885 31.0856C54.7907 30.4872 55.7417 30.2653 56.4898 30.893L78.0348 48.9714C78.6333 49.4736 78.7296 50.5743 78.2274 51.1727L76.2187 53.5666Z" fill="white" fill-opacity="0.4"/>
</svg>
