<svg width="102" height="99" viewBox="0 0 102 99" fill="none" xmlns="http://www.w3.org/2000/svg">
<g clip-path="url(#clip0_255_4028)">
<path d="M79.5537 68.2156L46.3336 74.9078L38.2309 69.7979L43.5327 61.9878L76.7528 55.2956L79.5537 68.2156ZM93.3758 73.0526C92.6843 74.0713 90.9358 74.4236 89.1874 74.7758L74.6172 77.7109L73.5212 72.6553L88.6742 69.6027L87.9435 66.2323L83.8639 67.0541L81.0629 54.1342L93.6542 51.8908C94.8198 51.656 96.229 52.5446 96.8248 53.8903L98.5298 61.7546C98.7733 62.8781 97.8513 64.2364 96.4551 64.8108C95.2895 65.0456 94.1239 65.2804 93.6629 65.9596C93.2019 66.6387 93.4454 67.7622 93.689 68.8856C94.0543 70.5708 94.4196 72.2561 93.3758 73.0526ZM4.35413 55.2236L41.2364 0.891984L65.8969 16.4436L54.3712 33.4222L71.9859 44.5305L68.5282 49.6241L80.1844 47.2759L81.337 45.5781L74.0302 11.8738L45.8467 -5.89946C41.9714 -8.34328 36.7262 -7.28662 34.1905 -3.55133L-2.69175 50.7802C-5.22741 54.5155 -4.13139 59.5712 -0.256159 62.015L42.0191 88.6749C45.8943 91.1187 51.1396 90.062 53.6753 86.3267L4.35413 55.2236ZM39.2225 63.1492C38.518 62.7049 37.5829 62.6001 37.2306 62.378L40.5404 53.7965L35.256 50.464L23.9391 51.5713L32.2767 43.7358L26.9923 40.4034L11.9437 55.1603L17.2281 58.4928L33.438 56.1067L30.2499 65.2499L33.7728 67.4715L35.7648 68.2428L39.2225 63.1492Z" fill="white" fill-opacity="0.6"/>
</g>
<defs>
<clipPath id="clip0_255_4028">
<rect width="101.042" height="97.39" fill="white" transform="translate(0.21875 0.865234) rotate(-0.039359)"/>
</clipPath>
</defs>
</svg>
